<?xml version="1.0" encoding="utf-8"?>
<!-- Generator: Adobe Illustrator 24.0.2, SVG Export Plug-In . SVG Version: 6.00 Build 0)  -->
<svg version="1.1" id="圖層_1" xmlns="http://www.w3.org/2000/svg" xmlns:xlink="http://www.w3.org/1999/xlink" x="0px" y="0px"
	 viewBox="0 0 595.28 841.89" style="enable-background:new 0 0 595.28 841.89;" xml:space="preserve">
<g>
	<g>
		<path d="M190.67,179.47c-9.1,0.1-16.46,7.54-16.39,16.65c0.07,9.17,7.55,16.5,16.65,16.44c9.14-0.08,16.44-7.57,16.37-16.72
			C207.22,186.77,199.82,179.42,190.67,179.47z M194.04,201.69c0,1.81-1.37,3.24-3.18,3.26c-1.73,0-3.22-1.42-3.26-3.2l-0.08-11.43
			c0-1.79,1.45-3.2,3.19-3.24c1.79,0,3.2,1.41,3.22,3.2L194.04,201.69z"/>
		<path d="M234.12,203.25l-0.09-9.81c-0.04-2.69-3.03-4.91-6.69-4.91c-2.5,0.05-4.65,1-5.78,2.45v-1.97l-11.27,0.08l0.04,5.6
			c1,0,1.87,0.75,1.89,1.79l0.05,6.98c0.02,1.01-0.86,1.83-1.85,1.85l0.04,4.94l13.09-0.1l-0.04-4.94c-1.02,0-1.83-0.83-1.85-1.95
			l-0.03-5.82c-0.04-0.95,0.77-1.83,1.8-1.83c1.08-0.03,1.88,0.87,1.88,1.79l0.15,12.76l10.56-0.1l-0.04-4.92
			C234.99,205.12,234.12,204.29,234.12,203.25z"/>
		<path d="M312.9,202.04l-0.13-13.76l-11.26,0.1l0.04,4.93c1,0,1.87,0.85,1.87,1.85l0.04,5.88c0.01,1.02-0.83,1.79-1.86,1.81
			c-1.06,0-1.86-0.76-1.89-1.81l-0.08-12.64l-10.64,0.09l0.05,4.93c1.02-0.02,1.85,0.77,1.85,1.77l0.14,9.81
			c0,2.77,3.03,4.99,6.76,4.95c2.41-0.03,4.54-0.95,5.74-2.44v2.02l11.31-0.08l-0.07-5.57C313.71,203.87,312.92,203.02,312.9,202.04
			z"/>
		<path d="M341.66,202.79l-4.24-5.49l3.2-3.07c0.91-0.3,1.9-0.52,1.9-1.92l-0.04-4.71l-12.68,0.1l0.06,4.93
			c0,1.39,1.24,1.39,1.24,1.39l-2.56,2.41l-0.15-18.3l-11.13,0.09l0.03,5.19c1.04,0,1.88,0.88,1.88,1.88l0.12,17.29
			c0.02,1.04-0.77,1.88-1.83,1.89l0.05,4.93l13.05-0.08v-4.95c-1.1,0-1.95-0.79-1.98-1.87v-0.46l6.39,7.24l8.99-0.09l-0.06-5.2
			C342.8,203.99,342.41,203.6,341.66,202.79z"/>
		<path d="M264.15,186.18l-0.02-4.26l-9.32,0.09l0.05,4.24c0.01,1.37-1.04,2.5-2.38,2.54l0.04,5.4c1.33-0.02,2.41,1.04,2.41,2.35
			l0.12,13.37l11.69-0.08l-0.04-5.41c-1.33,0-2.41-1.08-2.44-2.37l-0.04-5.57c-0.03-1.33,1.05-2.41,2.39-2.41l-0.04-5.4
			C265.25,188.67,264.15,187.55,264.15,186.18z"/>
		<path d="M280.8,196.05c0,0-4.43-0.87-3.42-2.5c0.97-1.41,3.58-0.37,4.95,1.16l4.38-0.02l-0.05-6.12l-4.12,0.04
			c-0.61,0-0.94,0.46-0.94,0.46c-1.47-0.39-3.13-0.77-5.08-0.75c-4.2,0.04-7.44,3.24-7.41,7.19c0.03,3.99,2.92,6.6,7.33,7.32
			c0,0,3.41,0.5,3.03,1.79c-0.4,1.22-4.62,1.12-6.43-1.6l-3.64,0.02l0.07,6.75l4.1-0.04c0,0,0.36-0.81,1.52-0.43
			c1.59,0.54,3.53,0.69,5.47,0.66c4.06-0.04,7.39-3.16,7.34-7.02C287.87,199.09,285.45,196.82,280.8,196.05z"/>
		<path d="M368.18,200.95c0,0,0.1-2.57,0.07-7.14c-0.02-4.66-5.78-7.8-12.26-7.57c-7.5,0.2-9.93,2.04-9.93,2.04l1.83,5.15
			c0,0,8.23-2.37,9.68,0.04c0,0,0.21,0.21-0.57,0.33c-0.98,0.21-1.39-0.13-3.59-0.1c-5.06,0.04-9.23,3.68-9.21,7.96
			c0.04,4.24,4.2,7.69,9.11,7.65c1.91,0,3.57-0.46,5.05-1.29c1.52,0.5,1.97,1.04,1.97,1.04l10.42-0.08l-0.02-4.66
			C367.94,203.55,368.18,200.95,368.18,200.95z M357.19,203.7c-1.15,0-2.06-1.14-2.1-2.45c0-1.44,0.91-2.5,2.06-2.52
			c1.14,0,2.02,1.04,2.02,2.47C359.17,202.52,358.34,203.66,357.19,203.7z"/>
		<path d="M249.53,203.12l-0.12-14.34l-11.23,0.1l0.07,5.17c1.05,0,1.84,0.88,1.88,1.87l0.06,7.28c0,1.06-0.8,1.87-1.88,1.87
			l0.04,4.94l13.02-0.08l-0.03-4.95C250.35,204.99,249.53,204.2,249.53,203.12z"/>
		<polygon points="249.33,179.82 239.93,179.88 239.98,186.91 249.41,186.84 		"/>
		<g>
			<g>
				<path d="M211.74,247.62c-6.91,13.37,0.08,16.98,0.08,16.98c6.07-3,6.53-17.96,6.53-17.96L211.74,247.62z"/>
				<path d="M298.3,241.99c-1.12,3.24-0.33,4.45-0.33,4.45s2.7-0.25,4.52-0.91c0,0,1.11-2.41,0.35-5.08
					C301.99,237.58,299.56,238.66,298.3,241.99z"/>
				<path d="M267.45,264.9c0.39,0.98,3.86,2.97,6.13,1.27c2.89-2.14-0.7-5.96-0.7-5.96L267.45,264.9z"/>
				<path d="M175.44,213.92l0.5,63.83c0.07,8.83,7.19,15.82,15.94,15.76l58.96-0.46c0,0,7.57-0.67,22.93,11.25
					c15.07-12.14,22.63-11.62,22.63-11.62l58.96-0.46c8.72-0.06,15.83-7.17,15.75-15.98l-0.49-63.86L175.44,213.92z M238.21,267.12
					c-8.47,11.2-18.81,12.03-25.5,9.71c-8.32-2.96-14.97-12.1-11.3-22.29c3.36-9.56,13.17-12.41,13.17-12.41
					c-0.7,1.02-1.58,2.78-1.58,2.78l17.67-3.3c0,0-1.66,9.1-3.14,14.84c-1.56,5.73-12.06,11.09-12.06,11.09
					c5.56,3.88,12.54,2.18,12.54,2.18l6.78-32.21c-3.47,0.46-11.02,0.93-18.1,1.27c-6.9,0.37-13.18,3.35-13.18,3.35
					c2.16-11.29,11.65-12.74,23.46-13.25c12.47-0.58,22.73-3.45,22.73-3.45c-2.96,9.77-11.64,11.63-11.64,11.63l-6.24,31.85
					C235.44,268.14,238.21,267.12,238.21,267.12z M249.67,271c-5.53,2.02-6.03-2.12-5.78-3.58c0.32-1.49,1.16-7.02,1.81-10.43
					c0.69-3.08-0.43-4.08-0.43-4.08c-0.63-0.6,1.16-1.28,1.82-2.24c1.34-1.79,1.94-2.87,4.2-2.52c2.36,0.4,3.49,2.14,3.09,4.88
					c-0.3,2.74-1.59,8.48-2.02,11.11c-0.45,2.62,3.88,0.89,3.88,0.89S254.37,269.27,249.67,271z M252.16,244.84
					c0,0-4.11-2.43-5.41-3.01c0,0,2.52-2.77,5.52-4.3c0,0,3.58,1.47,6.07,2.93L252.16,244.84z M283.91,246.33
					c-1.39,2.6-3.24,11.83-3.56,13.72c-0.31,1.85,0.66,10.89-7.96,13.74c-8.67,2.88-12.31-1.96-12.31-1.96l6.04-5.67
					c-3.5-2.97-5.29-9.25-2.66-14.62c2.66-5.4,9.47-8.27,10.55-8.72c1.04-0.44,2.09-0.02,2.09-0.02c5.32,1.6,5.67,0.35,7.27,0.48
					C284.92,243.47,285.37,243.65,283.91,246.33z M310.83,246.19l-13.62,3.2c0,0-1.29,3.26,0.37,4.63c1.83,1.48,4.43,1.19,9.68-1.31
					c0,0-1.98,4.8-8.02,6.63c-6.07,1.87-9.22-1.19-9.58-5.38c-0.35-4.13-0.1-11.49,5.72-15.67c5.86-4.23,11.43-2.62,12.7-1.91
					C309.36,237.13,312.52,238.83,310.83,246.19z M341.61,235.54c-2.23,1.5-6.35-0.16-8.7-0.96c-2.35-0.75-3.05,0.38-4.6,1.46
					c-1.54,1.05-1.46,2.03-1.46,2.03s-0.91,4.53-1.2,6.38c-0.27,1.93,1.2,2.18,2.35,2.18c1.19,0,5.12-1.37,5.12-1.37
					c-6.4,8.6-11.13,10.04-14.34,9.06c-3.22-0.95-3.31-3.78-2.98-5.86c0.3-2.08,1.22-6.81,1.8-9.14c0.58-2.35-0.69-3.21-0.69-3.21
					c-0.02-0.54,0.61-1.34,1.31-1.83c0.8-0.54,2.74-2.54,2.74-2.54c3.18-0.31,5.82,2.33,5.82,2.33c1.13-0.21,6.9-4.31,7.82-4.91
					c0.95-0.65,1.33-0.27,2.83,0.31c1.56,0.56,3.43,0.65,5.66,0.75c2.22-0.02,4.48,0.23,4.48,0.23
					C347.12,231.68,343.7,233.92,341.61,235.54z"/>
				<path d="M275.94,249.18c-0.79,0-2.96-1.09-4.08-0.29c-1.16,0.87-2.11,2.62-2.53,3.7c-0.62,1.6-0.61,5.28,2.22,6.44
					c2,0.75,1.32-2.24,1.9-3.88c0.66-1.71,1.7-3.35,2.86-4.22C277.35,250.12,276.73,249.18,275.94,249.18z"/>
			</g>
		</g>
	</g>
</g>
</svg>
